<svg xmlns="http://www.w3.org/2000/svg" viewBox="0 0 128 128"><defs><linearGradient id="a" x1="76.079" x2="523.48" y1="10.798" y2="365.95" gradientTransform="translate(1.11 14.613) scale(.24566)" gradientUnits="userSpaceOnUse"><stop offset="0" stop-color="#9013fe"/><stop offset="1" stop-color="#6610f2"/></linearGradient><linearGradient id="b" x1="193.51" x2="293.51" y1="109.74" y2="278.87" gradientTransform="translate(0 52)" gradientUnits="userSpaceOnUse"><stop offset="0" stop-color="#fff"/><stop offset="1" stop-color="#f1e5fc"/></linearGradient></defs><path fill="url(#a)" d="M14.985 27.712c-.237-6.815 5.072-13.099 12.249-13.099h73.54c7.177 0 12.486 6.284 12.249 13.099-.228 6.546.068 15.026 2.202 21.94 2.141 6.936 5.751 11.319 11.664 11.883v6.387c-5.913.564-9.523 4.947-11.664 11.883-2.134 6.914-2.43 15.394-2.202 21.94.237 6.815-5.072 13.098-12.249 13.098h-73.54c-7.177 0-12.486-6.284-12.249-13.098.228-6.546-.068-15.026-2.203-21.94-2.14-6.935-5.76-11.319-11.673-11.883v-6.387c5.913-.563 9.533-4.947 11.673-11.883 2.135-6.914 2.43-15.394 2.203-21.94z"/><path fill="url(#b)" d="M64 45.426c11.62 0 18.618 5.688 18.618 15.069 0 7.094-4.832 12.479-12.4 13.093v.296c5.449.887 9.725 5.946 9.725 11.602 0 8.052-6.357 13.297-16.035 13.297h-21.808V45.426zM51.91 58.75h11.277c6.13 0 9.613 2.733 9.613 7.683 0 5.282-4.05 8.236-11.391 8.236h-9.5zm0 39.75v-17.536h11.201c8.024 0 12.185 2.954 12.185 8.718 0 5.762-4.05 8.818-11.7 8.818z" transform="translate(1.494 2.203)"/></svg>
