<svg xmlns="http://www.w3.org/2000/svg" height="282" preserveAspectRatio="xMidYMid" width="256" style=""><rect id="backgroundrect" width="100%" height="100%" x="0" y="0" fill="none" stroke="none"/><g class="currentLayer" style=""><title>Layer 1</title><path d="M239.55325939941406,138.96 c0,-14.508 -11.762,-26.27 -26.27,-26.27 c-0.934,0 -1.854,0.05000000000000001 -2.762,0.14600000000000002 l36.082,-106.42 H93.26725939941406 l36.032,106.327 a26.318,26.318 0 0 0 -1.597,-0.05200000000000001 c-14.508,0 -26.27,11.76 -26.27,26.27 c0,11.727 7.686,21.656 18.293,25.034 c-5.602,9.704 -12.652000000000001,18.445 -20.656,25.997 c-10.884,10.267 -23.34,18.053 -36.812,22.85 c-16.04,-8.24 -23.614,-26.565 -16.78,-42.632 c0.772,-1.815 1.56,-3.654 2.313,-5.485 c11.620000000000001,-2.712 20.28,-13.129 20.28,-25.576 c0,-14.509 -11.762,-26.27 -26.271,-26.27 s-26.27,11.761 -26.27,26.27 c0,8.897 4.426,16.756 11.193,21.508 c-6.502,14.804 -16.06,30.298000000000002 -19.038,48.255 c-3.569,21.52 -0.012000000000000002,44.364 18.601,57.265 c43.348,30.044 90.402,-18.625 140.014,-30.86 c17.98,-4.433 37.717,-3.7190000000000003 53.558,-12.893 c11.896,-6.890000000000001 19.739,-18.309 21.964,-31.128 c2.2,-12.664 -1.006,-25.273 -8.378,-35.497 a26.158,26.158 0 0 0 6.11,-16.839 " fill="#99425b" id="svg_1" class=""/><path d="M235.50025939941406,190.198 c-1.932,11.13 -8.806000000000001,20.851 -18.858,26.674 c-9.371,5.427 -20.6,7.047 -32.49,8.761 c-6.369,0.918 -12.955,1.8690000000000002 -19.389,3.455 c-17.012,4.195 -33.49,12.38 -49.424,20.295 c-31.89,15.84 -59.43,29.518 -85.398,11.52 c-19.022,-13.183 -18.144,-37.575 -15.928,-50.941 c2.054,-12.384 7.607,-23.789 12.975999999999999,-34.818 a796.621,796.621 0 0 0 2.722,-5.634 a32.453,32.453 0 0 0 8.443,2.118 c-5.466,18.039 3.13,37.653 21.171,46.921 l2.47,1.2690000000000001 l2.614,-0.931 c14.263,-5.08 27.406,-13.23 39.063,-24.229 c7.535,-7.109 14.014,-14.974 19.339,-23.378 a32.8,32.8 0 0 0 4.891,0.36700000000000005 c16.559,0 30.271,-12.379 32.393,-28.367 c6.7780000000000005,-0.24800000000000003 13.977,-0.25 20.794,-0.0020000000000000005 c2.12,15.99 15.834,28.37 32.393,28.37 c6.924,0 13.346,-2.17 18.637,-5.856 c3.673,7.519 5.044,15.979 3.581,24.406 zM41.80025939941406,119.295 c10.948,0 19.854,8.907 19.854,19.855 c0,3.932 -1.154,7.599 -3.135,10.687 c-3.3,5.147 -8.91,8.675 -15.355,9.115 c-0.451,0.030000000000000006 -0.906,0.05200000000000001 -1.364,0.05200000000000001 c-2.44,0 -4.777,-0.44500000000000006 -6.938,-1.2530000000000001 a19.967,19.967 0 0 1 -10.305,-8.777 a19.725,19.725 0 0 1 -2.612,-9.824 c0,-10.948 8.907,-19.855 19.855,-19.855 zm66.049,19.666 c0,-9.947 7.353,-18.206 16.907,-19.634 c0.9620000000000001,-0.14500000000000002 1.9460000000000002,-0.22000000000000003 2.947,-0.22000000000000003 c6.365,0 12.032,3.015 15.666,7.687 a19.88,19.88 0 0 1 2.318,3.765 a19.73,19.73 0 0 1 1.87,8.402 c0,1.5870000000000002 -0.19200000000000003,3.13 -0.545,4.61 c-1.935,8.1 -8.842,14.292 -17.306,15.144 c-0.6580000000000001,0.06600000000000002 -1.326,0.1 -2.003,0.1 a19.734,19.734 0 0 1 -10.76,-3.181 c-5.466,-3.541 -9.094,-9.69 -9.094,-16.673000000000002 zm82.865,-23.61 a32.721000000000004,32.721000000000004 0 0 0 -8.991,15.117 a304.792,304.792 0 0 0 -22.458,0 c-1.6800000000000002,-6.232 -5.162,-11.73 -9.847,-15.906 l20.545,-41.542 zM102.21625939941406,12.834 h135.437 l-31.989,94.345 a32.479,32.479 0 0 0 -4.051,1.255 l-31.6,-64.463 l-31.69,64.078 a32.502,32.502 0 0 0 -4.226,-1.139 zm130.92,126.128 c0,1.99 -0.29700000000000004,3.912 -0.8440000000000001,5.727 a19.933,19.933 0 0 1 -7.6530000000000005,10.545 a19.74,19.74 0 0 1 -11.357,3.582 c-9.167,0 -16.9,-6.247 -19.174,-14.707 a19.803,19.803 0 0 1 -0.6800000000000002,-5.147 c0,-2.714 0.548,-5.302 1.538,-7.66 a19.848,19.848 0 0 1 1.8780000000000001,-3.442 c3.573,-5.274 9.602,-8.752 16.438,-8.752 c0.6270000000000001,0 1.245,0.03200000000000001 1.858,0.09000000000000002 c10.08,0.9390000000000001 17.997,9.442 17.997,19.764 zm12.833,0 c0,-15.958 -11.498,-29.273 -26.642,-32.117 L255.55325939941406,0 H84.31825939941406 L120.60025939941406,107.061 c-14.618,3.253 -25.583,16.316 -25.583,31.9 c0,11.702 6.184,21.98 15.452,27.756 c-4.458,6.642 -9.744,12.892 -15.802,18.608 c-9.608,9.063 -20.311,15.937 -31.85,20.46 c-11.623,-7.301 -16.536,-21.07 -11.434,-33.064 l0.4,-0.9400000000000001 l0.7500000000000001,-1.7640000000000002 c12.766,-4.453 21.953,-16.603 21.953,-30.867 c0,-18.024 -14.663,-32.687 -32.686,-32.687 S9.112259399414063,121.126 9.112259399414063,139.15 c0,9.097 3.74,17.335 9.758000000000001,23.267 a552.73,552.73 0 0 1 -3.418,7.11 c-5.503,11.301 -11.739,24.11 -14.098,38.335 c-4.684,28.25 2.872,50.833 21.277,63.588 c11.168,7.74 22.51,10.784 33.923,10.784 c21.49,0 43.23,-10.797 64.493,-21.359 c15.313,-7.605 31.148,-15.47 46.789,-19.328 c5.82,-1.435 11.808,-2.299 18.148,-3.213 c12.573,-1.814 25.573,-3.689 37.089,-10.358 c13.349,-7.732 22.486,-20.702 25.07,-35.582 c2.218,-12.775 -0.451,-25.57 -6.961,-36.422 a32.488,32.488 0 0 0 4.787,-17.011 z" fill="#fff" id="svg_2" class=""/></g></svg>