<svg xmlns="http://www.w3.org/2000/svg" viewBox="0 0 128 128">
  <rect x="0" y="0" width="128" height="128" fill="#1A3E5E" />
  <rect x="5" y="5" width="118" height="118" fill="#00BFFF" />
  <path d="M102.3 32.5c-15.5 13.1-38.3 20.3-51.4 30.1c-6.8 5.1-13.4 12.1-16.1 19.3c3.4-3.1 9.3-5.5 16.4-6.4c15.1-1.9 35.2-11.1 51.1-43z" fill="#1A3E5E" />
  <path d="M91.8 54.2c-14.1 11.9-34.7 18.5-46.6 27.4c-6.1 4.6-12.1 11-14.5 17.5c3.1-2.8 8.4-5 14.8-5.8c13.7-1.7 32-10.1 46.3-39.1z" fill="#1A3E5E" />
  <path d="M78.6 78.4c-11.8 10-29.1 15.5-39.1 23c-5.1 3.9-10.2 9.2-12.2 14.7c2.6-2.3 7.1-4.2 12.4-4.9c11.5-1.4 26.8-8.5 38.9-32.8z" fill="#1A3E5E" />
</svg>
